<?xml version="1.0" standalone="no"?>
<!DOCTYPE svg PUBLIC "-//W3C//DTD SVG 20010904//EN"
 "http://www.w3.org/TR/2001/REC-SVG-20010904/DTD/svg10.dtd">
<svg version="1.0" xmlns="http://www.w3.org/2000/svg"
 width="260.000000pt" height="260.000000pt" viewBox="0 0 260.000000 260.000000"
 preserveAspectRatio="xMidYMid meet">
<metadata>
Created by potrace 1.11, written by Peter Selinger 2001-2013
</metadata>
<g transform="translate(0.000000,260.000000) scale(0.100000,-0.100000)"
fill="#000000" stroke="none">
<path d="M12 2575 c-9 -19 -12 -351 -12 -1300 l0 -1275 1300 0 1300 0 0 1300
0 1300 -1274 0 c-921 0 -1277 -3 -1282 -11 -5 -8 -8 -8 -14 0 -4 7 -11 2 -18
-14z m598 -120 c0 -8 -4 -15 -10 -15 -5 0 -7 7 -4 15 4 8 8 15 10 15 2 0 4 -7
4 -15z m43 -92 c-7 -2 -19 -2 -25 0 -7 3 -2 5 12 5 14 0 19 -2 13 -5z m910
-352 c21 -5 41 -12 44 -14 4 -5 -34 -198 -64 -323 -4 -19 1 -22 43 -29 186
-27 330 -120 400 -257 24 -45 28 -68 32 -153 8 -201 -70 -367 -227 -485 -111
-84 -222 -121 -401 -135 l-76 -6 -20 -97 -19 -97 -148 -3 c-138 -2 -148 -1
-143 15 10 36 36 155 36 168 0 9 -15 16 -37 20 -180 28 -241 52 -312 123 -87
87 -123 182 -122 325 1 209 92 358 285 465 109 60 206 90 377 117 l36 5 29
143 c23 110 27 143 17 145 -19 5 -149 -16 -212 -35 -77 -22 -133 -76 -137
-131 -1 -23 1 -44 5 -46 4 -3 6 -19 3 -37 l-5 -32 -52 6 c-97 10 -145 54 -145
132 0 116 124 190 385 229 49 7 387 -3 428 -13z m-1310 -109 c3 7 4 3 4 -9 -1
-13 -5 -23 -9 -23 -4 0 -13 10 -19 23 -11 19 -10 21 3 9 13 -10 17 -10 21 0z
m-73 -22 c8 -15 8 -18 -3 -14 -8 3 -14 11 -14 19 0 20 4 19 17 -5z m920 -41
c0 -4 -6 -9 -13 -12 -10 -4 -13 2 -9 20 3 18 7 21 13 11 5 -7 9 -16 9 -19z
m-850 -120 c0 -5 8 -10 18 -10 16 -1 16 -2 -1 -6 -9 -2 -14 -9 -11 -15 4 -7 2
-8 -5 -4 -6 4 -9 12 -6 17 4 5 -1 12 -9 15 -9 3 -16 10 -16 15 0 4 7 6 15 3 8
-4 15 -10 15 -15z m780 -13 c0 -5 -7 -3 -15 4 -8 7 -12 17 -9 22 7 10 24 -9
24 -26z m-864 -57 c1 -21 -2 -36 -7 -33 -12 7 -11 -13 2 -38 10 -18 9 -20 -5
-15 -14 6 -16 3 -11 -14 6 -18 5 -19 -14 -10 -11 6 -31 12 -45 13 -19 2 -22 6
-16 18 13 24 13 32 -2 41 -9 7 -10 11 -2 17 7 4 14 18 15 32 4 26 29 39 64 32
16 -3 20 -12 21 -43z m111 -5 c-3 -4 -2 -15 3 -25 7 -12 7 -20 0 -24 -5 -3
-10 2 -10 12 0 11 -5 24 -12 31 -9 9 -8 12 7 12 10 0 15 -3 12 -6z m-147 -139
c0 -19 -48 -14 -53 6 -3 11 -2 17 2 15 4 -3 13 -1 21 4 14 9 30 -4 30 -25z
m-11 -33 c7 -14 6 -18 -8 -18 -12 0 -17 6 -13 18 2 10 6 18 8 18 2 0 8 -8 13
-18z m41 8 c0 -5 -2 -10 -4 -10 -3 0 -8 5 -11 10 -3 6 -1 10 4 10 6 0 11 -4
11 -10z m-57 -114 c4 -10 1 -13 -9 -9 -7 3 -14 9 -14 14 0 14 17 10 23 -5z"/>
<path d="M1125 1518 c-199 -70 -295 -226 -295 -478 0 -167 55 -274 163 -315
26 -10 49 -16 51 -14 2 2 16 60 30 129 14 69 40 190 56 270 17 80 35 165 40
190 5 25 18 87 30 139 11 52 20 96 20 98 0 8 -41 0 -95 -19z"/>
<path d="M1516 1524 c-6 -16 -176 -796 -176 -809 0 -15 97 7 157 36 166 80
283 330 252 543 -16 119 -74 198 -170 231 -52 19 -55 19 -63 -1z"/>
<path d="M90 1580 c-8 -5 -11 -12 -7 -16 4 -4 13 -2 19 4 15 15 7 24 -12 12z"/>
</g>
</svg>
